<?xml version="1.0" encoding="UTF-8"?>
<svg xmlns="http://www.w3.org/2000/svg" viewBox="0 0 3379.61 196.436" role="img" aria-label="Hartnett Capital horizontal wordmark — white">
  <title>Hartnett Capital horizontal wordmark — white</title>
  <g fill="#FFFFFF">
    <path d="M116.1591796875 0V1490H468.80126953125V905.28076171875H1063.8388671875V1490H1416.48095703125V0H1063.8388671875V617.19921875H468.80126953125V0Z" transform="translate(0.000 196.436) scale(0.13183594 -0.13183594)"/>
    <path d="M47.43994140625 0 544.359375 1490H1016.6826171875L1528.962158203125 0H1132.879638671875L925.56103515625 651.43701171875Q876.040771484375 813.998046875 829.5606689453125 997.298828125Q783.08056640625 1180.599609375 736.440673828125 1378.19970703125H815.001220703125Q770.121337890625 1180.11962890625 727.9613037109375 996.3388671875Q685.80126953125 812.55810546875 638.52099609375 651.43701171875L439.4423828125 0ZM384.80078125 317.19873046875V586.56005859375H1191.601318359375V317.19873046875Z" transform="translate(242.604 196.436) scale(0.13183594 -0.13183594)"/>
    <path d="M116.1591796875 0V1490H726.48046875Q894.400390625 1490 1016.0205078125 1429.739990234375Q1137.640625 1369.47998046875 1203.540771484375 1258.2598876953125Q1269.44091796875 1147.039794921875 1269.44091796875 995.03955078125Q1269.44091796875 841.519287109375 1202.4007568359375 733.439208984375Q1135.360595703125 625.359130859375 1011.200439453125 568.9991455078125Q887.040283203125 512.63916015625 716.080322265625 512.63916015625H327.04052734375V791.840576171875H651.599609375Q734.63916015625 791.840576171875 790.5589599609375 813.8004150390625Q846.478759765625 835.76025390625 874.918701171875 880.6400146484375Q903.358642578125 925.519775390625 903.358642578125 995.03955078125Q903.358642578125 1065.039306640625 874.918701171875 1111.1590576171875Q846.478759765625 1157.27880859375 790.43896484375 1180.4786376953125Q734.399169921875 1203.678466796875 651.11962890625 1203.678466796875H468.80126953125V0ZM934.15869140625 0 571.11865234375 680.880126953125H949.28076171875L1321.36083984375 0Z" transform="translate(490.878 196.436) scale(0.13183594 -0.13183594)"/>
    <path d="M66.07958984375 1201.91845703125V1490H1319.76123046875V1201.91845703125H869.4814453125V0H516.83935546875V1201.91845703125Z" transform="translate(710.147 196.436) scale(0.13183594 -0.13183594)"/>
    <path d="M116.1591796875 0V1490H504.3212890625L919.558837890625 816.68359375Q960.279052734375 750.043212890625 998.839111328125 678.363037109375Q1037.399169921875 606.682861328125 1075.379150390625 519.6226806640625Q1113.359130859375 432.5625 1152.119140625 319.922119140625H1119.0390625Q1113.0791015625 402.1220703125 1106.4190673828125 501.90234375Q1099.759033203125 601.6826171875 1094.958984375 696.1829833984375Q1090.158935546875 790.683349609375 1090.158935546875 855.68359375V1490H1451.921142578125V0H1063.279052734375L682.12109375 616.95703125Q630.680908203125 701.79736328125 589.380859375 777.9775390625Q548.080810546875 854.15771484375 506.5408935546875 943.0777587890625Q465.0009765625 1031.997802734375 409.201171875 1151.917724609375H449.521240234375Q456.80126953125 1045.477783203125 463.4613037109375 943.877685546875Q470.121337890625 842.277587890625 474.141357421875 757.83740234375Q478.161376953125 673.397216796875 478.161376953125 617.43701171875V0Z" transform="translate(933.372 196.436) scale(0.13183594 -0.13183594)"/>
    <path d="M116.1591796875 0V1490H1150.32080078125V1201.91845703125H468.80126953125V893.7607421875H1096.000732421875V611.75927734375H468.80126953125V288.08154296875H1149.440673828125V0Z" transform="translate(1180.591 196.436) scale(0.13183594 -0.13183594)"/>
    <path d="M66.07958984375 1201.91845703125V1490H1319.76123046875V1201.91845703125H869.4814453125V0H516.83935546875V1201.91845703125Z" transform="translate(1385.754 196.436) scale(0.13183594 -0.13183594)"/>
    <path d="M66.07958984375 1201.91845703125V1490H1319.76123046875V1201.91845703125H869.4814453125V0H516.83935546875V1201.91845703125Z" transform="translate(1608.979 196.436) scale(0.13183594 -0.13183594)"/>
    <path d="M786.800048828125 -20Q585.919921875 -20 426.539794921875 69.0799560546875Q267.15966796875 158.159912109375 174.819580078125 328.89990234375Q82.4794921875 499.639892578125 82.4794921875 744Q82.4794921875 990.1201171875 175.9595947265625 1161.2401123046875Q269.439697265625 1332.360107421875 429.1998291015625 1421.1800537109375Q588.9599609375 1510 786.800048828125 1510Q919.560302734375 1510 1032.98046875 1473.5799560546875Q1146.400634765625 1437.159912109375 1233.24072265625 1367.1998291015625Q1320.080810546875 1297.23974609375 1374.7208251953125 1195.7196044921875Q1429.36083984375 1094.199462890625 1444.80078125 963.999267578125H1087.5986328125Q1079.19873046875 1018.958984375 1055.138916015625 1062.518798828125Q1031.0791015625 1106.07861328125 993.4393310546875 1136.95849609375Q955.799560546875 1167.83837890625 905.8997802734375 1184.038330078125Q856 1200.23828125 795.920166015625 1200.23828125Q687.00048828125 1200.23828125 607.5008544921875 1146.2984619140625Q528.001220703125 1092.358642578125 485.521484375 990.4990234375Q443.041748046875 888.639404296875 443.041748046875 744Q443.041748046875 595.04052734375 486.4014892578125 493.5609130859375Q529.76123046875 392.081298828125 608.5008544921875 340.9215087890625Q687.240478515625 289.76171875 794.400146484375 289.76171875Q854.47998046875 289.76171875 903.999755859375 306.0816650390625Q953.51953125 322.401611328125 991.9193115234375 353.1614990234375Q1030.319091796875 383.92138671875 1055.138916015625 427.6011962890625Q1079.958740234375 471.281005859375 1089.11865234375 526.000732421875H1446.32080078125Q1436.44091796875 426.44091796875 1389.02099609375 329.600830078125Q1341.60107421875 232.7607421875 1258.1810302734375 153.560546875Q1174.760986328125 74.3603515625 1056.78076171875 27.18017578125Q938.800537109375 -20 786.800048828125 -20Z" transform="translate(1931.766 196.436) scale(0.13183594 -0.13183594)"/>
    <path d="M47.43994140625 0 544.359375 1490H1016.6826171875L1528.962158203125 0H1132.879638671875L925.56103515625 651.43701171875Q876.040771484375 813.998046875 829.5606689453125 997.298828125Q783.08056640625 1180.599609375 736.440673828125 1378.19970703125H815.001220703125Q770.121337890625 1180.11962890625 727.9613037109375 996.3388671875Q685.80126953125 812.55810546875 638.52099609375 651.43701171875L439.4423828125 0ZM384.80078125 317.19873046875V586.56005859375H1191.601318359375V317.19873046875Z" transform="translate(2173.052 196.436) scale(0.13183594 -0.13183594)"/>
    <path d="M116.1591796875 0V1490H726.48046875Q894.400390625 1490 1016.0205078125 1424.97998046875Q1137.640625 1359.9599609375 1203.540771484375 1243.83984375Q1269.44091796875 1127.7197265625 1269.44091796875 974.95947265625Q1269.44091796875 821.439208984375 1202.4007568359375 706.9791259765625Q1135.360595703125 592.51904296875 1011.200439453125 528.8990478515625Q887.040283203125 465.279052734375 716.080322265625 465.279052734375H337.60009765625V744.00048828125H651.599609375Q734.63916015625 744.00048828125 790.678955078125 773.100341796875Q846.71875 802.2001953125 875.0386962890625 854.0799560546875Q903.358642578125 905.959716796875 903.358642578125 974.95947265625Q903.358642578125 1045.479248046875 875.0386962890625 1096.739013671875Q846.71875 1147.998779296875 790.5589599609375 1175.838623046875Q734.399169921875 1203.678466796875 651.11962890625 1203.678466796875H468.80126953125V0Z" transform="translate(2421.325 196.436) scale(0.13183594 -0.13183594)"/>
    <path d="M468.80126953125 1490V0H116.1591796875V1490Z" transform="translate(2637.826 196.436) scale(0.13183594 -0.13183594)"/>
    <path d="M66.07958984375 1201.91845703125V1490H1319.76123046875V1201.91845703125H869.4814453125V0H516.83935546875V1201.91845703125Z" transform="translate(2755.450 196.436) scale(0.13183594 -0.13183594)"/>
    <path d="M47.43994140625 0 544.359375 1490H1016.6826171875L1528.962158203125 0H1132.879638671875L925.56103515625 651.43701171875Q876.040771484375 813.998046875 829.5606689453125 997.298828125Q783.08056640625 1180.599609375 736.440673828125 1378.19970703125H815.001220703125Q770.121337890625 1180.11962890625 727.9613037109375 996.3388671875Q685.80126953125 812.55810546875 638.52099609375 651.43701171875L439.4423828125 0ZM384.80078125 317.19873046875V586.56005859375H1191.601318359375V317.19873046875Z" transform="translate(2978.675 196.436) scale(0.13183594 -0.13183594)"/>
    <path d="M116.1591796875 0V1490H468.80126953125V288.08154296875H1091.92041015625V0Z" transform="translate(3226.948 196.436) scale(0.13183594 -0.13183594)"/>
  </g>
</svg>
